<?xml version="1.0" standalone="no"?>
<!DOCTYPE svg PUBLIC "-//W3C//DTD SVG 20010904//EN"
 "http://www.w3.org/TR/2001/REC-SVG-20010904/DTD/svg10.dtd">
<svg version="1.0" xmlns="http://www.w3.org/2000/svg"
 width="300.000000pt" height="300.000000pt" viewBox="0 0 300.000000 300.000000"
 preserveAspectRatio="xMidYMid meet">
<metadata>
Created by potrace 1.10, written by Peter Selinger 2001-2011
</metadata>
<g transform="translate(0.000000,300.000000) scale(0.100000,-0.100000)"
fill="#000000" stroke="none">
<path d="M1487 2300 c-6 -27 -10 -30 -44 -30 l-38 0 32 -21 c32 -20 32 -21 18
-50 -18 -33 -14 -35 20 -13 23 15 27 15 50 0 27 -18 32 -8 15 25 -9 16 -6 22
21 38 l32 20 -39 3 c-34 3 -39 6 -42 31 -4 36 -18 35 -25 -3z m15 -62 c-7 -7
-12 -8 -12 -2 0 6 3 14 7 17 3 4 9 5 12 2 2 -3 -1 -11 -7 -17z"/>
<path d="M1330 2210 c0 -14 -7 -20 -22 -20 -22 -1 -22 -1 -5 -14 16 -12 17
-18 6 -38 -12 -23 -12 -23 10 -4 21 19 21 19 42 0 22 -19 22 -19 10 4 -7 13
-11 25 -9 26 2 2 12 8 23 14 19 11 18 11 -7 12 -21 0 -28 5 -28 20 0 11 -4 20
-10 20 -5 0 -10 -9 -10 -20z"/>
<path d="M1650 2210 c0 -15 -7 -20 -27 -20 -26 -1 -27 -1 -8 -12 11 -6 21 -12
23 -14 2 -1 -2 -13 -9 -26 -12 -23 -12 -23 10 -4 21 19 21 19 42 0 22 -19 22
-19 10 4 -7 13 -11 25 -9 26 2 2 12 8 23 14 19 11 18 11 -7 12 -21 0 -28 5
-28 20 0 11 -4 20 -10 20 -5 0 -10 -9 -10 -20z"/>
<path d="M1142 2154 c-12 -8 -22 -26 -22 -40 0 -13 -16 -48 -35 -78 -20 -29
-45 -77 -56 -107 -27 -69 -36 -198 -19 -270 40 -172 166 -312 327 -362 73 -23
103 -28 103 -18 0 5 -19 12 -42 16 -73 12 -184 71 -243 131 -97 97 -153 247
-140 373 13 125 79 260 136 280 17 6 33 21 39 37 19 50 -4 69 -48 38z"/>
<path d="M1804 2157 c-9 -25 15 -68 45 -78 35 -13 83 -82 110 -160 78 -229
-25 -480 -241 -583 -40 -19 -92 -37 -115 -41 -24 -4 -43 -11 -43 -16 0 -5 12
-7 28 -3 210 46 355 184 402 383 28 120 -4 275 -79 385 -17 24 -31 54 -31 65
0 41 -63 80 -76 48z"/>
<path d="M1040 2131 c-14 -28 -12 -64 5 -87 15 -19 15 -19 30 0 24 31 13 106
-15 106 -5 0 -14 -9 -20 -19z"/>
<path d="M1920 2131 c-14 -28 -12 -64 5 -87 15 -19 15 -19 30 0 24 31 13 106
-15 106 -5 0 -14 -9 -20 -19z"/>
<path d="M1130 2045 c-18 -22 5 -45 45 -45 40 0 63 23 45 45 -7 8 -27 15 -45
15 -18 0 -38 -7 -45 -15z"/>
<path d="M1780 2045 c-18 -22 5 -45 45 -45 40 0 63 23 45 45 -7 8 -27 15 -45
15 -18 0 -38 -7 -45 -15z"/>
<path d="M974 2024 c-10 -38 7 -79 31 -79 27 0 33 59 9 86 -23 26 -32 24 -40
-7z"/>
<path d="M1987 2032 c-18 -20 -23 -77 -8 -86 30 -19 59 31 47 79 -8 30 -17 31
-39 7z"/>
<path d="M1385 1990 c-97 -27 -101 -31 -42 -45 28 -6 29 -7 22 -55 -5 -40 -4
-50 7 -50 10 0 14 13 14 48 -1 35 2 46 13 44 8 -2 17 1 20 6 3 5 26 12 51 15
44 6 44 6 10 -4 -19 -6 -41 -13 -47 -15 -7 -2 -13 -10 -13 -19 0 -12 15 -15
80 -15 62 0 80 3 80 14 0 9 20 18 53 26 28 6 59 14 67 17 14 5 -181 63 -205
62 -5 -1 -55 -14 -110 -29z m188 -43 c-13 -11 -40 -21 -60 -23 -36 -3 -36 -3
-14 12 16 12 19 19 12 28 -17 20 -5 23 43 12 l44 -10 -25 -19z"/>
<path d="M1078 1958 c-20 -20 -20 -22 -3 -35 26 -19 48 -16 80 9 26 20 27 22
9 35 -26 19 -61 16 -86 -9z"/>
<path d="M1836 1967 c-18 -13 -17 -15 9 -35 32 -25 54 -28 80 -9 17 13 17 15
-3 35 -25 25 -60 28 -86 9z"/>
<path d="M930 1907 c0 -42 45 -91 60 -67 16 25 11 59 -10 80 -31 31 -50 26
-50 -13z"/>
<path d="M2020 1920 c-20 -20 -25 -45 -14 -74 8 -21 16 -20 42 4 14 14 22 33
22 55 0 41 -19 46 -50 15z"/>
<path d="M1055 1865 c-30 -29 -31 -42 -6 -50 43 -13 113 45 80 66 -24 15 -49
10 -74 -16z"/>
<path d="M1871 1881 c-33 -21 37 -79 80 -66 25 8 24 21 -6 50 -25 26 -50 31
-74 16z"/>
<path d="M1405 1823 c-9 -32 -30 -82 -46 -110 l-29 -53 45 -41 c49 -45 91
-121 104 -189 7 -35 9 -13 10 98 1 89 -3 142 -9 142 -16 0 -12 36 6 50 12 11
18 10 32 -4 14 -13 14 -20 4 -36 -8 -13 -12 -64 -11 -157 1 -108 3 -128 10
-93 13 68 55 144 104 189 l45 41 -29 53 c-16 28 -37 78 -46 110 l-16 57 -79 0
-79 0 -16 -57z m160 0 c3 -16 20 -56 36 -91 l30 -62 -43 -51 -43 -51 -3 37
c-2 21 2 50 8 65 15 36 -10 80 -46 80 -32 0 -67 -39 -58 -65 4 -11 8 -42 11
-70 l4 -50 -45 50 c-25 28 -44 52 -43 55 1 3 17 44 36 93 l34 87 58 0 c54 0
57 -2 64 -27z"/>
<path d="M910 1795 c0 -30 32 -65 60 -65 15 0 20 7 20 25 0 30 -32 65 -60 65
-15 0 -20 -7 -20 -25z"/>
<path d="M2030 1800 c-11 -11 -20 -31 -20 -45 0 -18 5 -25 20 -25 28 0 60 35
60 65 0 31 -31 34 -60 5z"/>
<path d="M1050 1770 c-29 -29 -26 -60 5 -60 30 0 65 32 65 60 0 15 -7 20 -25
20 -14 0 -34 -9 -45 -20z"/>
<path d="M1880 1770 c0 -28 35 -60 65 -60 18 0 25 5 25 20 0 28 -35 60 -65 60
-18 0 -25 -5 -25 -20z"/>
<path d="M917 1703 c-22 -21 25 -83 63 -83 26 0 28 40 3 62 -22 19 -57 31 -66
21z"/>
<path d="M2050 1703 c-28 -11 -50 -36 -50 -60 0 -32 33 -31 66 2 36 36 25 73
-16 58z"/>
<path d="M1076 1679 c-28 -22 -38 -79 -12 -79 28 0 66 41 66 71 0 35 -17 37
-54 8z"/>
<path d="M1870 1671 c0 -30 38 -71 66 -71 26 0 16 57 -12 79 -37 29 -54 27
-54 -8z"/>
<path d="M1110 1583 c-15 -19 -19 -35 -15 -53 8 -31 9 -32 29 -24 38 15 56
104 21 104 -8 0 -23 -12 -35 -27z"/>
<path d="M1837 1589 c-8 -29 8 -65 33 -79 25 -14 26 -13 35 20 4 18 0 34 -15
53 -26 32 -46 35 -53 6z"/>
<path d="M940 1577 c0 -30 31 -57 66 -57 40 0 45 19 14 50 -22 22 -80 28 -80
7z"/>
<path d="M1980 1570 c-31 -31 -26 -50 14 -50 35 0 66 27 66 57 0 21 -58 15
-80 -7z"/>
<path d="M1178 1523 c-20 -23 -24 -41 -15 -75 8 -32 19 -35 41 -12 19 19 21
64 3 88 -12 16 -13 16 -29 -1z"/>
<path d="M1791 1521 c-21 -39 -4 -101 29 -101 25 0 26 81 1 104 -19 17 -20 17
-30 -3z"/>
<path d="M1001 1481 c-35 -22 26 -69 73 -57 31 8 32 15 6 44 -22 23 -55 28
-79 13z"/>
<path d="M1920 1468 c-26 -29 -25 -36 6 -44 47 -12 108 35 73 57 -24 15 -57
10 -79 -13z"/>
<path d="M1240 1444 c-14 -35 -13 -37 12 -69 20 -26 22 -27 35 -9 19 25 16 68
-5 87 -25 23 -31 21 -42 -9z"/>
<path d="M1717 1452 c-19 -21 -22 -54 -6 -83 8 -17 13 -18 25 -8 29 24 36 49
24 80 -14 34 -21 36 -43 11z"/>
<path d="M1326 1404 c-11 -28 -6 -45 19 -70 30 -30 45 -24 45 20 0 49 -50 88
-64 50z"/>
<path d="M1627 1402 c-19 -20 -23 -77 -7 -87 12 -8 60 39 60 59 0 45 -25 59
-53 28z"/>
<path d="M1069 1384 c-11 -14 -10 -18 6 -30 24 -18 79 -18 94 0 10 11 7 17
-11 30 -29 21 -72 20 -89 0z"/>
<path d="M1842 1384 c-18 -13 -21 -19 -11 -30 15 -18 70 -18 94 0 16 12 17 16
6 30 -17 20 -60 21 -89 0z"/>
<path d="M1165 1316 c-16 -12 -17 -16 -6 -30 19 -22 74 -20 95 3 17 19 17 20
-3 30 -27 15 -63 14 -86 -3z"/>
<path d="M1747 1319 c-18 -10 -18 -12 -1 -30 21 -23 76 -25 95 -3 11 14 10 18
-6 30 -22 16 -63 18 -88 3z"/>
<path d="M1476 1293 c-4 -9 0 -23 9 -32 13 -14 17 -14 30 0 19 19 10 49 -15
49 -10 0 -21 -8 -24 -17z"/>
<path d="M1274 1265 c-30 -30 -24 -45 20 -45 22 0 40 8 56 25 l23 24 -27 11
c-38 14 -44 13 -72 -15z"/>
<path d="M1651 1279 l-24 -9 23 -25 c16 -17 34 -25 56 -25 44 0 50 15 20 45
-27 27 -38 29 -75 14z"/>
<path d="M670 936 c0 -105 8 -120 65 -120 57 0 65 15 65 120 0 87 -2 94 -20
94 -18 0 -20 -8 -22 -92 -3 -85 -5 -93 -23 -93 -19 0 -20 7 -20 93 0 89 -1 92
-22 92 -22 0 -23 -3 -23 -94z"/>
<path d="M860 925 c0 -98 1 -105 20 -105 18 0 20 7 21 78 l1 77 26 -77 c22
-67 29 -78 49 -78 23 0 23 2 23 105 0 101 -1 105 -21 105 -21 0 -21 -4 -16
-66 6 -76 -2 -73 -27 9 -16 53 -19 57 -47 57 l-29 0 0 -105z"/>
<path d="M1065 925 c0 -102 1 -105 23 -105 21 0 22 3 22 105 0 102 -1 105 -22
105 -22 0 -23 -3 -23 -105z"/>
<path d="M1164 1013 c3 -10 12 -57 22 -105 l17 -88 31 0 31 0 20 105 20 105
-21 0 c-20 0 -23 -8 -35 -87 l-13 -88 -14 88 c-14 82 -16 87 -39 87 -18 0 -23
-4 -19 -17z"/>
<path d="M1358 925 l3 -105 60 0 c46 0 59 3 59 15 0 11 -11 15 -40 15 -38 0
-40 2 -40 30 0 27 3 30 30 30 22 0 30 5 30 18 0 15 -6 18 -30 14 -28 -4 -30
-2 -30 27 0 30 2 31 40 31 29 0 40 4 40 15 0 12 -14 15 -62 15 l-63 0 3 -105z"/>
<path d="M1530 925 l0 -105 25 0 c23 0 25 4 25 46 0 38 3 45 18 42 12 -2 18
-15 20 -45 3 -34 7 -42 28 -46 24 -4 24 -3 20 47 -3 28 -10 52 -15 54 -7 2 -5
12 3 25 32 50 2 87 -70 87 l-54 0 0 -105z m88 48 c-2 -17 -10 -29 -20 -31 -14
-3 -18 3 -18 27 0 25 4 31 21 31 16 0 20 -5 17 -27z"/>
<path d="M1732 1018 c-25 -25 -13 -60 33 -101 48 -43 55 -61 29 -71 -20 -8
-34 1 -34 20 0 8 -9 14 -20 14 -29 0 -26 -36 5 -56 44 -29 105 -2 105 46 0 21
-11 37 -45 64 -51 42 -58 66 -20 66 16 0 25 -6 25 -15 0 -8 9 -15 20 -15 23 0
27 29 8 48 -16 16 -90 16 -106 0z"/>
<path d="M1905 926 c0 -101 1 -105 23 -109 22 -4 22 -3 22 104 0 106 -1 109
-22 109 -22 0 -23 -3 -23 -104z"/>
<path d="M2000 1015 c0 -9 9 -15 25 -15 25 0 25 -1 25 -90 0 -83 1 -90 20 -90
19 0 20 7 20 90 0 89 0 90 25 90 16 0 25 6 25 15 0 12 -14 15 -70 15 -56 0
-70 -3 -70 -15z"/>
<path d="M2205 974 c16 -35 25 -75 25 -105 0 -46 2 -49 25 -49 23 0 25 3 25
50 0 28 7 64 15 80 9 17 20 41 25 55 8 22 7 25 -14 25 -18 0 -25 -8 -36 -42
l-13 -43 -14 43 c-12 34 -19 42 -39 42 l-24 0 25 -56z"/>
<path d="M1078 705 c2 -19 8 -35 12 -35 4 0 10 16 12 35 3 27 0 35 -12 35 -12
0 -15 -8 -12 -35z"/>
<path d="M1126 718 c-9 -37 -7 -44 14 -44 20 0 26 20 14 50 -9 23 -21 20 -28
-6z"/>
<path d="M1180 705 c0 -28 4 -35 20 -35 13 0 20 7 20 20 0 11 -4 20 -10 20 -5
0 -7 -7 -4 -15 4 -8 1 -15 -5 -15 -6 0 -11 12 -11 26 0 19 4 25 15 20 8 -3 15
-1 15 4 0 6 -9 10 -20 10 -16 0 -20 -7 -20 -35z"/>
<path d="M1240 705 c0 -30 3 -35 23 -34 17 1 18 2 4 6 -14 4 -17 11 -12 34 4
18 3 29 -4 29 -6 0 -11 -16 -11 -35z"/>
<path d="M1290 705 c0 -19 5 -35 10 -35 6 0 10 16 10 35 0 19 -4 35 -10 35 -5
0 -10 -16 -10 -35z"/>
<path d="M1331 703 c1 -34 2 -35 9 -13 11 36 11 50 0 50 -5 0 -10 -17 -9 -37z"/>
<path d="M1356 712 c-4 -18 -5 -36 -2 -39 11 -12 17 5 14 39 l-3 33 -9 -33z"/>
<path d="M1390 705 c0 -30 3 -35 23 -35 18 0 19 2 7 10 -12 8 -13 11 -1 19 11
7 11 9 0 14 -12 4 -11 7 1 16 12 9 11 11 -7 11 -20 0 -23 -5 -23 -35z"/>
<path d="M1469 733 c-2 -15 3 -58 8 -66 7 -11 33 12 33 29 0 20 -18 17 -23 -3
-3 -11 -5 -8 -6 9 -1 22 2 26 16 21 11 -4 14 -3 9 5 -8 13 -35 16 -37 5z"/>
<path d="M1527 734 c-12 -12 -8 -51 7 -63 18 -15 39 9 34 41 -3 22 -27 35 -41
22z m20 -41 c-3 -10 -5 -4 -5 12 0 17 2 24 5 18 2 -7 2 -21 0 -30z"/>
<path d="M1585 705 c0 -28 4 -35 20 -35 17 0 17 2 5 10 -12 8 -13 11 -1 19 11
7 11 9 0 14 -12 4 -11 7 1 16 13 9 12 11 -5 11 -16 0 -20 -7 -20 -35z"/>
<path d="M1640 728 c0 -6 8 -20 18 -31 16 -19 16 -20 0 -14 -17 6 -24 -3 -12
-16 9 -8 34 3 34 16 0 6 -8 19 -17 30 -17 19 -17 20 0 14 9 -4 17 -2 17 3 0 6
-9 10 -20 10 -11 0 -20 -5 -20 -12z"/>
<path d="M1722 705 c0 -22 2 -32 5 -22 2 9 8 17 13 17 5 0 7 -7 4 -15 -4 -8
-1 -15 5 -15 6 0 11 16 11 35 0 35 -19 51 -21 18 0 -15 -2 -15 -9 2 -7 15 -8
11 -8 -20z"/>
<path d="M1780 705 c0 -30 3 -35 23 -34 16 1 18 2 5 6 -21 5 -23 19 -5 26 10
4 10 6 0 6 -19 1 -16 19 5 24 13 4 11 5 -5 6 -20 1 -23 -4 -23 -34z"/>
<path d="M1834 705 c0 -37 11 -47 19 -17 4 16 5 16 6 0 0 -10 5 -18 10 -18 5
0 8 15 6 33 -2 23 -8 33 -22 35 -16 2 -19 -3 -19 -33z"/>
<path d="M1895 706 c0 -25 5 -36 18 -40 19 -5 24 10 5 17 -10 4 -10 8 1 15 11
8 11 10 0 15 -12 4 -11 7 1 16 13 9 12 11 -5 11 -16 0 -20 -7 -20 -34z"/>
</g>
</svg>
